<svg xmlns="http://www.w3.org/2000/svg" xmlns:xlink="http://www.w3.org/1999/xlink" width="200" zoomAndPan="magnify" viewBox="0 0 150 149.999998" height="200" preserveAspectRatio="xMidYMid meet" version="1.0"><defs><g/><clipPath id="4374d25ab7"><path d="M 2.441406 87.078125 L 150 87.078125 L 150 104.320312 L 2.441406 104.320312 Z M 2.441406 87.078125 " clip-rule="nonzero"/></clipPath></defs><g fill="#0f62d5" fill-opacity="1"><g transform="translate(68.911404, 120.915655)"><g><path d="M 2.953125 0 L 2.953125 -0.84375 L 4.734375 -0.84375 C 6.703125 -0.84375 8.238281 -1.289062 9.34375 -2.1875 C 10.445312 -3.09375 11 -4.59375 11 -6.6875 L 11 -53.953125 C 11 -55.921875 10.445312 -57.34375 9.34375 -58.21875 C 8.238281 -59.09375 6.703125 -59.53125 4.734375 -59.53125 L 2.953125 -59.53125 L 2.953125 -60.375 L 28.828125 -60.375 L 28.828125 -59.53125 L 27.0625 -59.53125 C 25.03125 -59.53125 23.476562 -59.078125 22.40625 -58.171875 C 21.332031 -57.273438 20.796875 -55.753906 20.796875 -53.609375 L 20.796875 -25.796875 L 41.78125 -49.21875 C 44.875 -52.539062 46.421875 -55.019531 46.421875 -56.65625 C 46.421875 -57.726562 45.769531 -58.460938 44.46875 -58.859375 C 43.175781 -59.253906 41.125 -59.453125 38.3125 -59.453125 L 38.3125 -60.375 L 57.59375 -60.375 L 57.59375 -59.453125 C 56.289062 -59.453125 55.046875 -59.238281 53.859375 -58.8125 C 52.679688 -58.382812 51.414062 -57.609375 50.0625 -56.484375 C 48.707031 -55.359375 47.070312 -53.722656 45.15625 -51.578125 L 32.296875 -37.296875 L 50.484375 -10.65625 C 52.234375 -8.113281 53.6875 -6.125 54.84375 -4.6875 C 56 -3.25 57.007812 -2.25 57.875 -1.6875 C 58.75 -1.125 59.640625 -0.84375 60.546875 -0.84375 L 60.71875 -0.84375 L 60.71875 0 L 58.765625 0 C 55.835938 0 53.425781 -0.125 51.53125 -0.375 C 49.644531 -0.632812 48.082031 -1.054688 46.84375 -1.640625 C 45.601562 -2.234375 44.53125 -3.023438 43.625 -4.015625 C 42.726562 -5.003906 41.773438 -6.226562 40.765625 -7.6875 L 25.796875 -30.015625 L 20.796875 -24.4375 L 20.796875 -6.765625 C 20.796875 -4.617188 21.332031 -3.09375 22.40625 -2.1875 C 23.476562 -1.289062 25.03125 -0.84375 27.0625 -0.84375 L 28.828125 -0.84375 L 28.828125 0 Z M 2.953125 0 "/></g></g></g><g fill="#004aad" fill-opacity="1"><g transform="translate(0.00000125, 94.669381)"><g><path d="M 2.953125 0 L 2.953125 -0.84375 L 7.109375 -0.84375 C 9.023438 -0.84375 10.53125 -1.289062 11.625 -2.1875 C 12.726562 -3.09375 13.28125 -4.59375 13.28125 -6.6875 L 13.28125 -53.953125 C 13.28125 -55.921875 12.726562 -57.34375 11.625 -58.21875 C 10.53125 -59.09375 9.023438 -59.53125 7.109375 -59.53125 L 2.953125 -59.53125 L 2.953125 -60.375 L 21.8125 -60.375 L 42.203125 -10.828125 L 59.703125 -60.375 L 76.703125 -60.375 L 76.703125 -59.53125 L 74.921875 -59.53125 C 72.890625 -59.53125 71.335938 -59.078125 70.265625 -58.171875 C 69.203125 -57.273438 68.671875 -55.753906 68.671875 -53.609375 L 68.671875 -6.765625 C 68.671875 -4.617188 69.203125 -3.09375 70.265625 -2.1875 C 71.335938 -1.289062 72.890625 -0.84375 74.921875 -0.84375 L 76.703125 -0.84375 L 76.703125 0 L 52.9375 0 L 52.9375 -0.84375 L 53.359375 -0.84375 C 55.160156 -0.84375 56.582031 -1.28125 57.625 -2.15625 C 58.664062 -3.03125 59.1875 -4.507812 59.1875 -6.59375 L 59.1875 -56.3125 L 39.40625 0 L 36.78125 0 L 14.125 -55.390625 L 14.125 -6.765625 C 14.125 -4.617188 14.6875 -3.09375 15.8125 -2.1875 C 16.9375 -1.289062 18.628906 -0.84375 20.890625 -0.84375 L 22.921875 -0.84375 L 22.921875 0 Z M 2.953125 0 "/></g></g></g><g clip-path="url(#4374d25ab7)"><path fill="#f4f4f4" d="M 2.441406 87.078125 L 149.617188 87.078125 L 149.617188 104.246094 L 2.441406 104.246094 Z M 2.441406 87.078125 " fill-opacity="1" fill-rule="nonzero"/></g><g fill="#0f62d5" fill-opacity="1"><g transform="translate(15.273026, 101.129376)"><g><path d="M 3.394531 0.0390625 C 6.484375 -1.332031 8.371094 -5.589844 9.46875 -8.335938 C 9.480469 -8.382812 9.527344 -8.398438 9.570312 -8.390625 C 9.617188 -8.382812 9.644531 -8.335938 9.644531 -8.289062 C 9.3125 -5.46875 8.640625 -1.796875 8.472656 -0.910156 C 8.457031 -0.808594 8.511719 -0.699219 8.613281 -0.652344 C 8.714844 -0.605469 8.835938 -0.632812 8.902344 -0.714844 C 10.066406 -2.121094 12.148438 -5.515625 13.535156 -7.859375 C 13.5625 -7.898438 13.617188 -7.917969 13.65625 -7.898438 C 13.703125 -7.878906 13.722656 -7.832031 13.710938 -7.785156 C 12.578125 -3.648438 11.859375 -0.167969 13.21875 0.261719 C 13.347656 0.296875 13.488281 0.222656 13.527344 0.09375 C 13.5625 -0.0390625 13.496094 -0.167969 13.367188 -0.214844 C 12.167969 -0.578125 13.886719 -6.632812 14.625 -9.210938 C 14.726562 -9.601562 14.828125 -9.953125 14.921875 -10.277344 C 14.949219 -10.398438 14.882812 -10.519531 14.773438 -10.566406 C 14.652344 -10.613281 14.519531 -10.566406 14.464844 -10.457031 C 14.148438 -9.839844 11.433594 -5.144531 9.535156 -2.390625 C 9.496094 -2.324219 9.414062 -2.308594 9.347656 -2.335938 C 9.285156 -2.363281 9.246094 -2.429688 9.253906 -2.503906 C 9.65625 -4.753906 10.261719 -8.484375 10.308594 -10.445312 C 10.316406 -10.558594 10.242188 -10.660156 10.128906 -10.6875 C 10.019531 -10.714844 9.90625 -10.660156 9.851562 -10.558594 C 9.710938 -10.289062 9.527344 -9.824219 9.292969 -9.226562 C 8.277344 -6.640625 6.382812 -1.8125 3.199219 -0.410156 C 2.269531 0 1.582031 -0.1875 1.238281 -0.492188 C 0.976562 -0.726562 0.882812 -1.089844 0.996094 -1.414062 C 1.21875 -2.074219 2.128906 -2.53125 3.421875 -2.640625 C 3.488281 -2.640625 3.542969 -2.667969 3.589844 -2.726562 C 3.628906 -2.773438 3.65625 -2.835938 3.648438 -2.902344 C 3.636719 -3.03125 3.515625 -3.136719 3.386719 -3.125 C 1.226562 -2.941406 0.667969 -1.980469 0.53125 -1.582031 C 0.351562 -1.058594 0.503906 -0.492188 0.910156 -0.128906 C 1.253906 0.167969 1.703125 0.335938 2.167969 0.316406 C 2.585938 0.308594 3.015625 0.214844 3.394531 0.0390625 Z M 3.394531 0.0390625 "/></g></g></g><g fill="#0f62d5" fill-opacity="1"><g transform="translate(29.616584, 101.129376)"><g><path d="M 6.78125 -2.640625 C 6.734375 -2.6875 6.679688 -2.707031 6.613281 -2.707031 C 6.546875 -2.707031 6.484375 -2.6875 6.4375 -2.640625 C 5.320312 -1.527344 3.738281 -1.015625 2.1875 -1.273438 C 2.066406 -1.300781 1.980469 -1.414062 2 -1.535156 C 2.074219 -1.980469 2.039062 -2.4375 1.777344 -2.585938 C 1.609375 -2.679688 1.359375 -2.6875 1.058594 -2.1875 C 0.949219 -2.019531 0.910156 -1.8125 0.949219 -1.617188 C 0.996094 -1.421875 1.117188 -1.246094 1.285156 -1.144531 C 1.386719 -1.058594 1.265625 -0.921875 1.199219 -0.855469 C 1.023438 -0.640625 0.714844 -0.605469 0.503906 -0.773438 C 0.234375 -0.894531 0.113281 -1.191406 0.214844 -1.460938 C 0.335938 -1.953125 0.820312 -2.382812 0.996094 -2.382812 C 1.125 -2.382812 1.238281 -2.492188 1.238281 -2.625 C 1.246094 -2.753906 1.136719 -2.863281 1.003906 -2.875 L 0.996094 -2.875 C 0.53125 -2.875 -0.09375 -2.242188 -0.261719 -1.582031 C -0.417969 -1.097656 -0.195312 -0.566406 0.269531 -0.34375 C 0.445312 -0.242188 0.640625 -0.195312 0.847656 -0.1875 C 1.246094 -0.203125 1.601562 -0.445312 1.765625 -0.820312 C 1.785156 -0.847656 1.832031 -0.863281 1.871094 -0.855469 C 3.050781 -0.503906 5.210938 -0.726562 6.78125 -2.289062 C 6.828125 -2.335938 6.855469 -2.398438 6.855469 -2.464844 C 6.855469 -2.53125 6.828125 -2.59375 6.78125 -2.640625 Z M 1.515625 -1.582031 C 1.414062 -1.675781 1.394531 -1.824219 1.480469 -1.933594 C 1.507812 -1.980469 1.527344 -2.007812 1.542969 -2.039062 C 1.554688 -1.886719 1.542969 -1.730469 1.515625 -1.582031 Z M 1.515625 -1.582031 "/></g></g></g><g fill="#0f62d5" fill-opacity="1"><g transform="translate(36.04421, 101.129376)"><g><path d="M 7.339844 -2.222656 C 7.246094 -2.324219 7.097656 -2.335938 6.996094 -2.242188 C 6.976562 -2.234375 5.058594 -0.558594 3.65625 -0.78125 C 3.238281 -0.847656 2.875 -1.097656 2.667969 -1.46875 C 2.492188 -1.796875 2.167969 -2 1.804688 -2.039062 C 1.347656 -2.066406 0.847656 -1.796875 0.316406 -1.238281 C 0.289062 -1.210938 0.242188 -1.199219 0.203125 -1.21875 C 0.167969 -1.238281 0.148438 -1.273438 0.15625 -1.320312 C 0.1875 -1.496094 0.269531 -1.945312 0.308594 -2.113281 C 0.308594 -2.082031 0.371094 -2.214844 0.371094 -2.222656 C 1.164062 -3.300781 3.527344 -6.726562 2.605469 -7.824219 C 2.484375 -7.992188 2.261719 -8.066406 2.054688 -8.007812 C 1.871094 -7.953125 1.300781 -7.777344 0.429688 -4.667969 C 0.214844 -3.917969 0.0195312 -3.105469 -0.140625 -2.34375 L -0.203125 -2.261719 C -0.269531 -2.175781 -0.269531 -2.066406 -0.214844 -1.972656 C -0.351562 -1.285156 -0.445312 -0.652344 -0.492188 -0.167969 C -0.503906 -0.0546875 -0.4375 0.046875 -0.335938 0.0820312 C -0.234375 0.121094 -0.113281 0.0820312 -0.046875 -0.0078125 C 0.902344 -1.386719 1.507812 -1.5625 1.777344 -1.554688 C 1.972656 -1.535156 2.148438 -1.414062 2.242188 -1.238281 C 2.519531 -0.734375 3.015625 -0.382812 3.589844 -0.296875 C 5.210938 -0.046875 7.226562 -1.804688 7.320312 -1.878906 C 7.414062 -1.972656 7.421875 -2.121094 7.339844 -2.222656 Z M 2.195312 -7.542969 C 2.214844 -7.542969 2.222656 -7.515625 2.234375 -7.507812 C 2.679688 -7.003906 0.828125 -3.265625 0.59375 -3.414062 C 0.371094 -3.554688 1.804688 -7.542969 2.195312 -7.542969 Z M 2.195312 -7.542969 "/></g></g></g><g fill="#0f62d5" fill-opacity="1"><g transform="translate(43.07646, 101.129376)"><g><path d="M 7.777344 -2.25 C 7.683594 -2.351562 7.527344 -2.363281 7.421875 -2.269531 C 7.394531 -2.242188 4.632812 0.242188 2.921875 -0.882812 C 2.242188 -1.332031 2.074219 -2.410156 2.074219 -2.417969 C 2.066406 -2.53125 1.980469 -2.613281 1.871094 -2.632812 C 1.765625 -2.640625 1.65625 -2.585938 1.609375 -2.492188 C 1.171875 -1.527344 0.398438 -0.296875 0.1875 -0.4375 C 0.167969 -0.4375 0.128906 -0.472656 0.101562 -0.539062 C -0.0078125 -0.847656 0.0273438 -1.179688 0.1875 -1.46875 C 0.539062 -2.195312 1.191406 -2.714844 1.972656 -2.910156 C 2.054688 -2.929688 2.121094 -2.996094 2.148438 -3.078125 C 2.175781 -3.164062 2.148438 -3.253906 2.09375 -3.320312 C 2.027344 -3.375 1.945312 -3.40625 1.859375 -3.386719 C 0.929688 -3.164062 0.15625 -2.53125 -0.261719 -1.675781 C -0.484375 -1.253906 -0.511719 -0.753906 -0.335938 -0.316406 C -0.25 -0.101562 -0.046875 0.046875 0.1875 0.046875 L 0.195312 0.046875 C 0.652344 0.0390625 1.21875 -0.53125 1.609375 -1.144531 C 1.65625 -1.21875 1.738281 -1.253906 1.824219 -1.246094 C 1.90625 -1.246094 1.980469 -1.199219 2.019531 -1.125 C 2.175781 -0.863281 2.390625 -0.640625 2.652344 -0.484375 C 4.679688 0.863281 7.628906 -1.796875 7.757812 -1.90625 C 7.804688 -1.953125 7.832031 -2.019531 7.832031 -2.074219 C 7.84375 -2.140625 7.8125 -2.203125 7.777344 -2.25 Z M 7.777344 -2.25 "/></g></g></g><g fill="#0f62d5" fill-opacity="1"><g transform="translate(50.59241, 101.129376)"><g><path d="M 10.203125 -2.363281 C 10.101562 -2.445312 9.945312 -2.429688 9.859375 -2.324219 C 9.839844 -2.296875 7.765625 0.234375 5.859375 -0.875 C 5.609375 -1.050781 5.414062 -1.292969 5.3125 -1.570312 C 5.136719 -1.925781 4.921875 -2.351562 4.324219 -2.261719 C 4.019531 -2.214844 3.542969 -1.824219 3.144531 -1.375 C 3.125 -1.347656 3.089844 -1.339844 3.058594 -1.347656 C 3.03125 -1.359375 3.003906 -1.375 3.003906 -1.414062 C 2.929688 -1.832031 2.652344 -2.1875 2.261719 -2.351562 C 1.945312 -2.4375 1.433594 -2.53125 0.363281 -1.46875 C 0.308594 -1.421875 0.234375 -1.441406 0.242188 -1.515625 C 0.242188 -1.554688 0.429688 -2.308594 0.429688 -2.308594 C 0.457031 -2.4375 0.371094 -2.566406 0.242188 -2.605469 C 0.113281 -2.632812 -0.0195312 -2.546875 -0.0546875 -2.417969 L -0.503906 -0.457031 C -0.53125 -0.34375 -0.472656 -0.234375 -0.371094 -0.175781 C -0.261719 -0.128906 -0.140625 -0.15625 -0.0742188 -0.25 C 1.171875 -1.8125 1.785156 -1.960938 2.039062 -1.925781 C 2.289062 -1.878906 2.625 -1.375 2.585938 -0.566406 C 2.585938 -0.457031 2.652344 -0.351562 2.761719 -0.324219 C 2.875 -0.289062 2.984375 -0.335938 3.042969 -0.429688 C 3.421875 -1.078125 4.167969 -1.738281 4.398438 -1.777344 C 4.625 -1.8125 4.6875 -1.730469 4.875 -1.359375 C 5.015625 -0.984375 5.273438 -0.667969 5.609375 -0.457031 C 6 -0.222656 6.445312 -0.09375 6.902344 -0.09375 C 8.679688 -0.09375 10.167969 -1.917969 10.242188 -2.019531 C 10.324219 -2.121094 10.308594 -2.277344 10.203125 -2.363281 Z M 10.203125 -2.363281 "/></g></g></g><g fill="#0f62d5" fill-opacity="1"><g transform="translate(60.38733, 101.129376)"><g><path d="M 7.804688 -2.390625 C 7.757812 -2.4375 7.703125 -2.472656 7.636719 -2.472656 C 7.570312 -2.484375 7.507812 -2.464844 7.460938 -2.429688 C 7.421875 -2.398438 3.84375 0.445312 0.855469 -0.78125 C 0.25 -1.03125 0.222656 -1.359375 0.242188 -1.535156 C 0.242188 -1.5625 0.25 -1.589844 0.277344 -1.609375 C 0.296875 -1.628906 0.335938 -1.628906 0.363281 -1.617188 C 0.96875 -1.582031 1.570312 -1.738281 2.09375 -2.066406 C 2.539062 -2.351562 2.613281 -2.667969 2.585938 -2.875 C 2.566406 -3.210938 2.296875 -3.480469 1.953125 -3.488281 C 1.21875 -3.527344 -0.0078125 -2.652344 -0.214844 -1.722656 C -0.296875 -1.375 -0.289062 -0.726562 0.667969 -0.335938 C 1.253906 -0.09375 1.871094 0.0195312 2.492188 0.0195312 C 5.164062 0.0195312 7.636719 -1.945312 7.765625 -2.046875 C 7.8125 -2.082031 7.851562 -2.148438 7.851562 -2.203125 C 7.859375 -2.269531 7.84375 -2.335938 7.804688 -2.390625 Z M 0.578125 -2.1875 C 0.941406 -2.6875 1.542969 -3.023438 1.925781 -2.996094 C 2.027344 -2.996094 2.082031 -2.957031 2.101562 -2.820312 C 2.113281 -2.726562 2.007812 -2.59375 1.824219 -2.472656 C 1.441406 -2.222656 0.296875 -1.8125 0.578125 -2.1875 Z M 0.578125 -2.1875 "/></g></g></g><g fill="#0f62d5" fill-opacity="1"><g transform="translate(67.838168, 101.129376)"><g><path d="M 8.800781 -2.128906 C 8.753906 -2.175781 8.699219 -2.195312 8.632812 -2.203125 C 8.566406 -2.203125 8.503906 -2.175781 8.457031 -2.128906 C 7.050781 -0.753906 5.003906 -0.277344 4.148438 -0.550781 C 3.421875 -0.78125 3.089844 -1.441406 2.941406 -2.140625 C 2.910156 -2.296875 2.941406 -2.445312 3.023438 -2.578125 C 4.140625 -4.472656 5.320312 -7.210938 4.910156 -7.871094 C 4.820312 -8.019531 4.652344 -8.09375 4.472656 -8.066406 C 3.441406 -7.933594 2.558594 -5.796875 2.382812 -3.886719 C 2.34375 -3.480469 2.34375 -3.078125 2.371094 -2.679688 C 2.382812 -2.546875 2.351562 -2.417969 2.277344 -2.308594 C 2.222656 -2.214844 2.15625 -2.113281 2.09375 -2.019531 C 1.273438 -0.808594 0.714844 -0.417969 0.484375 -0.445312 C 0.363281 -0.457031 0.261719 -0.539062 0.234375 -0.652344 C 0.140625 -1.125 0.25 -1.609375 0.519531 -2 C 0.714844 -2.234375 1.003906 -2.492188 1.285156 -2.4375 C 1.441406 -2.390625 1.570312 -2.269531 1.636719 -2.121094 C 1.664062 -1.992188 1.785156 -1.898438 1.917969 -1.917969 C 2.046875 -1.933594 2.140625 -2.054688 2.121094 -2.195312 C 2.027344 -2.53125 1.777344 -2.789062 1.441406 -2.894531 C 1.152344 -2.984375 0.6875 -2.949219 0.148438 -2.316406 C -0.148438 -1.972656 -0.445312 -1.058594 -0.222656 -0.472656 C -0.128906 -0.195312 0.121094 0 0.410156 0.0390625 C 0.4375 0.0390625 0.472656 0.0390625 0.503906 0.0390625 C 0.996094 0.0390625 1.617188 -0.492188 2.351562 -1.542969 C 2.382812 -1.582031 2.4375 -1.609375 2.492188 -1.601562 C 2.546875 -1.601562 2.59375 -1.5625 2.613281 -1.515625 C 2.820312 -0.835938 3.339844 -0.308594 4 -0.0820312 C 5.097656 0.261719 7.332031 -0.351562 8.800781 -1.785156 C 8.894531 -1.878906 8.894531 -2.027344 8.800781 -2.128906 Z M 2.875 -3.84375 C 3.023438 -5.542969 3.703125 -7.042969 4.277344 -7.46875 C 4.324219 -7.496094 4.390625 -7.507812 4.445312 -7.46875 C 4.492188 -7.441406 4.519531 -7.386719 4.519531 -7.332031 C 4.4375 -6.625 3.933594 -5.347656 3.003906 -3.691406 C 2.855469 -3.449219 2.855469 -3.675781 2.875 -3.84375 Z M 2.875 -3.84375 "/></g></g></g><g fill="#0f62d5" fill-opacity="1"><g transform="translate(76.302918, 101.129376)"><g/></g></g><g fill="#004aad" fill-opacity="1"><g transform="translate(79.762441, 101.129376)"><g><path d="M 25.480469 -13.488281 C 24.390625 -13.824219 23.015625 -13.496094 21.933594 -13.246094 C 20.519531 -12.921875 19.152344 -12.398438 17.839844 -11.785156 C 15.171875 -10.546875 12.699219 -8.921875 10.371094 -7.144531 C 9.359375 -6.371094 8.351562 -5.570312 7.394531 -4.726562 C 8.308594 -6.699219 8.949219 -8.761719 9.273438 -10.019531 C 9.347656 -10.296875 8.976562 -10.429688 8.828125 -10.203125 C 8.027344 -9.078125 6.6875 -8.203125 5.5625 -9.480469 C 5.347656 -9.722656 5.003906 -9.375 5.21875 -9.136719 C 6.269531 -7.933594 7.535156 -8.261719 8.519531 -9.136719 C 7.367188 -5.246094 4.261719 2.78125 -0.0664062 -0.699219 C -0.308594 -0.882812 -0.660156 -0.550781 -0.417969 -0.34375 C 2.652344 2.113281 5.117188 -0.371094 6.828125 -3.582031 C 6.863281 -3.589844 6.894531 -3.609375 6.929688 -3.636719 C 7.582031 -4.25 8.25 -4.847656 8.941406 -5.433594 C 9.796875 -3.796875 11.042969 -2.242188 12.492188 -1.136719 C 15.347656 1.042969 18.539062 0.59375 21.265625 -1.554688 C 21.515625 -1.75 21.164062 -2.09375 20.921875 -1.90625 C 18.074219 0.351562 14.828125 0.398438 12.128906 -2.074219 C 11.003906 -3.105469 10.019531 -4.382812 9.320312 -5.75 C 11.722656 -7.722656 14.335938 -9.46875 17.058594 -10.863281 C 18.464844 -11.589844 19.933594 -12.214844 21.46875 -12.625 C 22.503906 -12.910156 24.707031 -13.617188 25.691406 -12.875 C 27.273438 -11.675781 23.796875 -8.382812 22.101562 -9.785156 C 21.859375 -9.980469 21.515625 -9.636719 21.757812 -9.441406 C 24.398438 -7.246094 28.390625 -12.59375 25.480469 -13.488281 Z M 25.480469 -13.488281 "/></g></g></g><g fill="#004aad" fill-opacity="1"><g transform="translate(101.8638, 101.129376)"><g><path d="M 7.777344 -2.25 C 7.683594 -2.351562 7.527344 -2.363281 7.421875 -2.269531 C 7.394531 -2.242188 4.632812 0.242188 2.921875 -0.882812 C 2.242188 -1.332031 2.074219 -2.410156 2.074219 -2.417969 C 2.066406 -2.53125 1.980469 -2.613281 1.871094 -2.632812 C 1.765625 -2.640625 1.65625 -2.585938 1.609375 -2.492188 C 1.171875 -1.527344 0.398438 -0.296875 0.1875 -0.4375 C 0.167969 -0.4375 0.128906 -0.472656 0.101562 -0.539062 C -0.0078125 -0.847656 0.0273438 -1.179688 0.1875 -1.46875 C 0.539062 -2.195312 1.191406 -2.714844 1.972656 -2.910156 C 2.054688 -2.929688 2.121094 -2.996094 2.148438 -3.078125 C 2.175781 -3.164062 2.148438 -3.253906 2.09375 -3.320312 C 2.027344 -3.375 1.945312 -3.40625 1.859375 -3.386719 C 0.929688 -3.164062 0.15625 -2.53125 -0.261719 -1.675781 C -0.484375 -1.253906 -0.511719 -0.753906 -0.335938 -0.316406 C -0.25 -0.101562 -0.046875 0.046875 0.1875 0.046875 L 0.195312 0.046875 C 0.652344 0.0390625 1.21875 -0.53125 1.609375 -1.144531 C 1.65625 -1.21875 1.738281 -1.253906 1.824219 -1.246094 C 1.90625 -1.246094 1.980469 -1.199219 2.019531 -1.125 C 2.175781 -0.863281 2.390625 -0.640625 2.652344 -0.484375 C 4.679688 0.863281 7.628906 -1.796875 7.757812 -1.90625 C 7.804688 -1.953125 7.832031 -2.019531 7.832031 -2.074219 C 7.84375 -2.140625 7.8125 -2.203125 7.777344 -2.25 Z M 7.777344 -2.25 "/></g></g></g><g fill="#004aad" fill-opacity="1"><g transform="translate(109.37975, 101.129376)"><g><path d="M 8.019531 -2.445312 C 7.972656 -2.492188 7.917969 -2.519531 7.851562 -2.519531 C 7.785156 -2.519531 7.722656 -2.492188 7.675781 -2.445312 C 6.066406 -0.875 3.210938 -0.539062 2.59375 -0.902344 C 2.175781 -1.144531 2.222656 -1.433594 2.519531 -2.007812 C 2.660156 -2.289062 2.820312 -2.613281 2.546875 -2.808594 C 2.296875 -2.996094 2.054688 -2.875 1.84375 -2.761719 C 1.535156 -2.585938 1.191406 -2.492188 0.828125 -2.492188 C 0.746094 -2.492188 0.667969 -2.640625 0.6875 -2.699219 C 1.210938 -3.84375 0.976562 -4.054688 0.894531 -4.140625 C 0.753906 -4.277344 0.539062 -4.269531 0.277344 -4.113281 C -0.148438 -3.804688 -0.335938 -3.253906 -0.1875 -2.746094 C -0.148438 -2.605469 -0.0820312 -2.472656 0.0078125 -2.363281 C 0 -2.261719 0.046875 -2.167969 0.140625 -2.121094 C 0.195312 -2.09375 0.261719 -2.09375 0.324219 -2.113281 C 0.484375 -2.039062 0.660156 -2 0.835938 -2 C 1.21875 -1.992188 1.589844 -2.074219 1.925781 -2.261719 C 2.054688 -2.324219 2.101562 -2.269531 2.082031 -2.234375 C 1.859375 -1.796875 1.460938 -0.996094 2.351562 -0.472656 C 2.667969 -0.324219 3.023438 -0.261719 3.375 -0.289062 C 4.679688 -0.289062 6.726562 -0.847656 8.007812 -2.101562 C 8.054688 -2.140625 8.082031 -2.203125 8.082031 -2.269531 C 8.09375 -2.335938 8.066406 -2.398438 8.019531 -2.445312 Z M 0.269531 -2.957031 C 0.214844 -3.226562 0.308594 -3.507812 0.519531 -3.683594 C 0.457031 -3.433594 0.371094 -3.191406 0.269531 -2.949219 Z M 0.269531 -2.957031 "/></g></g></g><g fill="#004aad" fill-opacity="1"><g transform="translate(117.007324, 101.129376)"><g><path d="M 6.027344 -2.511719 C 5.925781 -2.605469 5.777344 -2.605469 5.683594 -2.503906 C 5.644531 -2.472656 2.632812 0.59375 0.632812 -0.863281 C 0.0195312 -1.3125 0.613281 -2.472656 0.625 -2.484375 C 0.679688 -2.605469 0.632812 -2.746094 0.511719 -2.808594 C 0.390625 -2.863281 0.25 -2.828125 0.1875 -2.707031 C 0.148438 -2.652344 -0.605469 -1.171875 0.34375 -0.472656 C 0.78125 -0.148438 1.320312 0.0273438 1.871094 0.0195312 C 3.878906 0.0195312 5.917969 -2.054688 6.027344 -2.167969 C 6.074219 -2.214844 6.101562 -2.269531 6.101562 -2.335938 C 6.09375 -2.398438 6.074219 -2.464844 6.027344 -2.511719 Z M 0.0820312 -3.246094 C 0.121094 -3.246094 0.15625 -3.253906 0.195312 -3.273438 C 0.417969 -3.386719 0.613281 -3.535156 0.789062 -3.710938 C 0.882812 -3.8125 0.875 -3.960938 0.78125 -4.054688 C 0.679688 -4.148438 0.53125 -4.148438 0.4375 -4.046875 C 0.296875 -3.90625 0.140625 -3.796875 -0.0390625 -3.703125 C -0.128906 -3.65625 -0.1875 -3.535156 -0.15625 -3.433594 C -0.128906 -3.320312 -0.0273438 -3.246094 0.0820312 -3.246094 Z M 0.0820312 -3.246094 "/></g></g></g><g fill="#004aad" fill-opacity="1"><g transform="translate(122.718701, 101.129376)"><g><path d="M 10.203125 -2.363281 C 10.101562 -2.445312 9.945312 -2.429688 9.859375 -2.324219 C 9.839844 -2.296875 7.765625 0.234375 5.859375 -0.875 C 5.609375 -1.050781 5.414062 -1.292969 5.3125 -1.570312 C 5.136719 -1.925781 4.921875 -2.351562 4.324219 -2.261719 C 4.019531 -2.214844 3.542969 -1.824219 3.144531 -1.375 C 3.125 -1.347656 3.089844 -1.339844 3.058594 -1.347656 C 3.03125 -1.359375 3.003906 -1.375 3.003906 -1.414062 C 2.929688 -1.832031 2.652344 -2.1875 2.261719 -2.351562 C 1.945312 -2.4375 1.433594 -2.53125 0.363281 -1.46875 C 0.308594 -1.421875 0.234375 -1.441406 0.242188 -1.515625 C 0.242188 -1.554688 0.429688 -2.308594 0.429688 -2.308594 C 0.457031 -2.4375 0.371094 -2.566406 0.242188 -2.605469 C 0.113281 -2.632812 -0.0195312 -2.546875 -0.0546875 -2.417969 L -0.503906 -0.457031 C -0.53125 -0.34375 -0.472656 -0.234375 -0.371094 -0.175781 C -0.261719 -0.128906 -0.140625 -0.15625 -0.0742188 -0.25 C 1.171875 -1.8125 1.785156 -1.960938 2.039062 -1.925781 C 2.289062 -1.878906 2.625 -1.375 2.585938 -0.566406 C 2.585938 -0.457031 2.652344 -0.351562 2.761719 -0.324219 C 2.875 -0.289062 2.984375 -0.335938 3.042969 -0.429688 C 3.421875 -1.078125 4.167969 -1.738281 4.398438 -1.777344 C 4.625 -1.8125 4.6875 -1.730469 4.875 -1.359375 C 5.015625 -0.984375 5.273438 -0.667969 5.609375 -0.457031 C 6 -0.222656 6.445312 -0.09375 6.902344 -0.09375 C 8.679688 -0.09375 10.167969 -1.917969 10.242188 -2.019531 C 10.324219 -2.121094 10.308594 -2.277344 10.203125 -2.363281 Z M 10.203125 -2.363281 "/></g></g></g></svg>